# xmcd CD database file
#
# Track frame offsets:
#	150
#	24540
#	48075
#	72765
#	98335
#	120887
#	146470
#	165035
#	181105
#	199795
#	218717
#	239090
#	260150
#
# Disc length: 3785 seconds
#
# Revision: 0
# Processed by: cddbd v1.5.1PL0 Copyright (c) Steve Scherf et al.
# Submitted via: CDex 1.51
#
DISCID=a30ec70d
DTITLE=高樹レイ - HERE'S THAT RAINY DAY
DYEAR=2002
DGENRE=Jazz
TTITLE0=The Shadow of Your Smile
TTITLE1=Angel Eyes
TTITLE2=Body and Soul
TTITLE3=I Cover The Waterfront
TTITLE4=I'll Never Be The Same
TTITLE5=When Sunny Gets Blue
TTITLE6=Fools Rush In
TTITLE7=Here's That Rainy Day
TTITLE8=Once in A While
TTITLE9=Just Friends
TTITLE10=Left Alone
TTITLE11=Solitude
TTITLE12=In The Wee Small Hours of The Morning
EXTD=YEAR: 2002
EXTT0=
EXTT1=
EXTT2=
EXTT3=
EXTT4=
EXTT5=
EXTT6=
EXTT7=
EXTT8=
EXTT9=
EXTT10=
EXTT11=
EXTT12=
PLAYORDER=
